# xmcd
#
# Track frame offsets:
#	150
#	13167
#	26292
#	42064
#	55257
#	72440
#	88622
#	105204
#	120230
#	133242
#	146442
#	162247
#	175492
#	192630
#	208855
#	225447
#
# Disc length: 3264
#
# Revision: 1
# Processed by: cddbd v1.5.2PL0 Copyright (c) Steve Scherf et al.
# Submitted via: kJams Pro (development) 1.0patch49.33
#
DISCID=d70cbe10
DTITLE=Various Artist - Top Hits Monthly Country − January 1999 − Vol 9901−C Disc 2
DYEAR=1999
DGENRE=Country
TTITLE0=Reba McEntire - Wrong Night (Vocal)
TTITLE1=Trisha Yearwood - Powerful Thing (Vocal)
TTITLE2=Wilkinsons, The - Fly (The Angel Song) (Vocal)
TTITLE3=LeAnn Rimes - These Arms of Mine (Vocal)
TTITLE4=Jo Dee Messina - Stand Beside Me (Vocal)
TTITLE5=Sara Evans - No Place That Far (Vocal)
TTITLE6=Kinleys, The - Somebody's Out There Watching (Vocal)
TTITLE7=Lacy J Dalton - 16th Avenue
TTITLE8=Reba McEntire - Wrong Night
TTITLE9=Trisha Yearwood - Powerful Thing
TTITLE10=Wilkinsons, The - Fly (The Angel Song)
TTITLE11=LeAnn Rimes - These Arms of Mine
TTITLE12=Jo Dee Messina - Stand Beside Me
TTITLE13=Sara Evans - No Place That Far
TTITLE14=Kinleys, The - Somebody's Out There Watching
TTITLE15=Lacy J Dalton - 16th Avenue
EXTD=
EXTT0=
EXTT1=
EXTT2=
EXTT3=
EXTT4=
EXTT5=
EXTT6=
EXTT7=
EXTT8=
EXTT9=
EXTT10=
EXTT11=
EXTT12=
EXTT13=
EXTT14=
EXTT15=
PLAYORDER=
